<svg id="visual" viewBox="0 0 900 450" width="900" height="450" xmlns="http://www.w3.org/2000/svg" xmlns:xlink="http://www.w3.org/1999/xlink" version="1.1"><rect x="0" y="0" width="900" height="450" fill="#352f2f"></rect><path d="M0 272L15 266C30 260 60 248 90 249C120 250 150 264 180 277.3C210 290.7 240 303.3 270 298.5C300 293.7 330 271.3 360 262.8C390 254.3 420 259.7 450 270C480 280.3 510 295.7 540 289C570 282.3 600 253.7 630 254.3C660 255 690 285 720 293.3C750 301.7 780 288.3 810 285.2C840 282 870 289 885 292.5L900 296L900 451L885 451C870 451 840 451 810 451C780 451 750 451 720 451C690 451 660 451 630 451C600 451 570 451 540 451C510 451 480 451 450 451C420 451 390 451 360 451C330 451 300 451 270 451C240 451 210 451 180 451C150 451 120 451 90 451C60 451 30 451 15 451L0 451Z" fill="#945fe5"></path><path d="M0 340L15 333.2C30 326.3 60 312.7 90 299.8C120 287 150 275 180 272.8C210 270.7 240 278.3 270 278.5C300 278.7 330 271.3 360 268.5C390 265.7 420 267.3 450 278.7C480 290 510 311 540 322.7C570 334.3 600 336.7 630 330.7C660 324.7 690 310.3 720 302.5C750 294.7 780 293.3 810 293C840 292.7 870 293.3 885 293.7L900 294L900 451L885 451C870 451 840 451 810 451C780 451 750 451 720 451C690 451 660 451 630 451C600 451 570 451 540 451C510 451 480 451 450 451C420 451 390 451 360 451C330 451 300 451 270 451C240 451 210 451 180 451C150 451 120 451 90 451C60 451 30 451 15 451L0 451Z" fill="#ad4fcd"></path><path d="M0 348L15 349C30 350 60 352 90 350.3C120 348.7 150 343.3 180 337.2C210 331 240 324 270 315.5C300 307 330 297 360 294.8C390 292.7 420 298.3 450 301.7C480 305 510 306 540 305.7C570 305.3 600 303.7 630 305.3C660 307 690 312 720 316.2C750 320.3 780 323.7 810 327.5C840 331.3 870 335.7 885 337.8L900 340L900 451L885 451C870 451 840 451 810 451C780 451 750 451 720 451C690 451 660 451 630 451C600 451 570 451 540 451C510 451 480 451 450 451C420 451 390 451 360 451C330 451 300 451 270 451C240 451 210 451 180 451C150 451 120 451 90 451C60 451 30 451 15 451L0 451Z" fill="#bd3fb3"></path><path d="M0 366L15 359.2C30 352.3 60 338.7 90 334.5C120 330.3 150 335.7 180 344.2C210 352.7 240 364.3 270 371C300 377.7 330 379.3 360 370.8C390 362.3 420 343.7 450 344.5C480 345.3 510 365.7 540 375.2C570 384.7 600 383.3 630 378C660 372.7 690 363.3 720 358.5C750 353.7 780 353.3 810 350.2C840 347 870 341 885 338L900 335L900 451L885 451C870 451 840 451 810 451C780 451 750 451 720 451C690 451 660 451 630 451C600 451 570 451 540 451C510 451 480 451 450 451C420 451 390 451 360 451C330 451 300 451 270 451C240 451 210 451 180 451C150 451 120 451 90 451C60 451 30 451 15 451L0 451Z" fill="#c53199"></path><path d="M0 390L15 388.7C30 387.3 60 384.7 90 387.3C120 390 150 398 180 398.3C210 398.7 240 391.3 270 390.7C300 390 330 396 360 393.2C390 390.3 420 378.7 450 379.3C480 380 510 393 540 398.2C570 403.3 600 400.7 630 394.7C660 388.7 690 379.3 720 375.7C750 372 780 374 810 372.3C840 370.7 870 365.3 885 362.7L900 360L900 451L885 451C870 451 840 451 810 451C780 451 750 451 720 451C690 451 660 451 630 451C600 451 570 451 540 451C510 451 480 451 450 451C420 451 390 451 360 451C330 451 300 451 270 451C240 451 210 451 180 451C150 451 120 451 90 451C60 451 30 451 15 451L0 451Z" fill="#c82780"></path><path d="M0 404L15 401.3C30 398.7 60 393.3 90 392.5C120 391.7 150 395.3 180 400.7C210 406 240 413 270 417.3C300 421.7 330 423.3 360 425.3C390 427.3 420 429.7 450 423.7C480 417.7 510 403.3 540 400C570 396.7 600 404.3 630 407.8C660 411.3 690 410.7 720 407C750 403.3 780 396.7 810 398.2C840 399.7 870 409.3 885 414.2L900 419L900 451L885 451C870 451 840 451 810 451C780 451 750 451 720 451C690 451 660 451 630 451C600 451 570 451 540 451C510 451 480 451 450 451C420 451 390 451 360 451C330 451 300 451 270 451C240 451 210 451 180 451C150 451 120 451 90 451C60 451 30 451 15 451L0 451Z" fill="#c62368"></path></svg>